<svg width="10" height="11" viewBox="0 0 10 11" fill="none" xmlns="http://www.w3.org/2000/svg">
<path d="M0.483654 10.3209L0.483609 10.3208C0.201297 10.0387 0.201297 9.58109 0.483609 9.29902L3.97782 5.805L0.483609 2.31098C0.483594 2.31096 0.48358 2.31095 0.483566 2.31093C0.201312 2.02888 0.201311 1.57129 0.483563 1.28923L0.483654 10.3209ZM0.483654 10.3209C0.624703 10.4617 0.809865 10.5323 0.994416 10.5323C1.17898 10.5323 1.36419 10.4617 1.50527 10.3206L4.99952 6.82651M0.483654 10.3209L9.51525 9.29883M1.50527 1.28923C1.22303 1.00699 0.765863 1.00698 0.483609 1.28918L4.89346 4.88936L4.99952 4.7833M1.50527 1.28923L1.3992 1.39529L1.50526 1.28922L1.50527 1.28923ZM1.50527 1.28923L4.99952 4.7833M4.99952 4.7833L8.4936 1.28923C8.77583 1.00699 9.233 1.00698 9.51525 1.28918M4.99952 4.7833L5.10559 4.88936M5.10559 4.88936L8.59966 1.39529C8.82333 1.17162 9.18556 1.17162 9.40923 1.39529M5.10559 4.88936L0.994416 10.3823C1.14079 10.3823 1.28737 10.3264 1.3992 10.2145L4.89346 6.72045L4.99952 6.82651M5.10559 4.88936L9.51525 1.28918M9.40923 1.39529C9.63291 1.61878 9.63291 1.98138 9.40923 2.20487L5.91516 5.69893L6.02123 5.805M9.40923 1.39529L9.5153 1.28923M9.40923 1.39529L9.51525 1.28918M6.02123 5.805L5.91517 5.91107L9.40923 9.40494M6.02123 5.805L9.51525 9.29883M6.02123 5.805L9.51525 2.31098M9.40923 9.40494C9.63291 9.62843 9.63291 9.99103 9.40923 10.2145M9.40923 9.40494L9.51525 9.29883M9.40923 9.40494L9.5153 9.29888L9.51525 9.29883M9.40923 10.2145C9.2974 10.3264 9.15083 10.3823 9.00445 10.3823C8.85807 10.3823 8.7115 10.3264 8.59966 10.2145L5.10559 6.72045L4.99952 6.82651M9.40923 10.2145L9.51525 10.3206C9.51527 10.3206 9.51528 10.3206 9.5153 10.3206M9.40923 10.2145L9.5153 10.3206M4.99952 6.82651L8.4936 10.3206C8.63467 10.4617 8.81988 10.5323 9.00445 10.5323C9.18901 10.5323 9.37422 10.4617 9.5153 10.3206M9.5153 10.3206C9.79757 10.0385 9.79755 9.58089 9.51525 9.29883M9.51525 9.29883L9.5153 1.28923M9.51525 2.31098C9.79755 2.02892 9.79757 1.5713 9.5153 1.28923M9.51525 2.31098L9.5153 2.31093L9.40927 2.2049L9.51525 2.31098ZM9.5153 1.28923L9.51525 1.28918" fill="#544E61" stroke="#544E61" stroke-width="0.3"/>
</svg>
